<?xml version="1.0" standalone="no"?>
<svg xmlns:xlink="http://www.w3.org/1999/xlink" id="wave" style="transform:rotate(0deg); transition: 0.3s" viewBox="0 0 1440 240" version="1.1" xmlns="http://www.w3.org/2000/svg"><defs><linearGradient id="sw-gradient-0" x1="0" x2="0" y1="1" y2="0"><stop stop-color="rgba(243, 106, 62, 1)" offset="0%"/><stop stop-color="rgba(244.441, 227.679, 5.038, 1)" offset="100%"/></linearGradient></defs><path style="transform:translate(0, 0px); opacity:1" fill="url(#sw-gradient-0)" d="M0,168L34.3,164C68.6,160,137,152,206,156C274.3,160,343,176,411,164C480,152,549,112,617,100C685.7,88,754,104,823,116C891.4,128,960,136,1029,116C1097.1,96,1166,48,1234,36C1302.9,24,1371,48,1440,48C1508.6,48,1577,24,1646,24C1714.3,24,1783,48,1851,64C1920,80,1989,88,2057,100C2125.7,112,2194,128,2263,116C2331.4,104,2400,64,2469,44C2537.1,24,2606,24,2674,36C2742.9,48,2811,72,2880,80C2948.6,88,3017,80,3086,96C3154.3,112,3223,152,3291,144C3360,136,3429,80,3497,52C3565.7,24,3634,24,3703,56C3771.4,88,3840,152,3909,180C3977.1,208,4046,200,4114,168C4182.9,136,4251,80,4320,80C4388.6,80,4457,136,4526,144C4594.3,152,4663,112,4731,80C4800,48,4869,24,4903,12L4937.1,0L4937.1,240L4902.9,240C4868.6,240,4800,240,4731,240C4662.9,240,4594,240,4526,240C4457.1,240,4389,240,4320,240C4251.4,240,4183,240,4114,240C4045.7,240,3977,240,3909,240C3840,240,3771,240,3703,240C3634.3,240,3566,240,3497,240C3428.6,240,3360,240,3291,240C3222.9,240,3154,240,3086,240C3017.1,240,2949,240,2880,240C2811.4,240,2743,240,2674,240C2605.7,240,2537,240,2469,240C2400,240,2331,240,2263,240C2194.3,240,2126,240,2057,240C1988.6,240,1920,240,1851,240C1782.9,240,1714,240,1646,240C1577.1,240,1509,240,1440,240C1371.4,240,1303,240,1234,240C1165.7,240,1097,240,1029,240C960,240,891,240,823,240C754.3,240,686,240,617,240C548.6,240,480,240,411,240C342.9,240,274,240,206,240C137.1,240,69,240,34,240L0,240Z"/><defs><linearGradient id="sw-gradient-1" x1="0" x2="0" y1="1" y2="0"><stop stop-color="rgba(243, 106, 62, 1)" offset="0%"/><stop stop-color="rgba(255, 237.915, 11, 1)" offset="100%"/></linearGradient></defs><path style="transform:translate(0, 50px); opacity:0.9" fill="url(#sw-gradient-1)" d="M0,72L34.3,92C68.6,112,137,152,206,164C274.3,176,343,160,411,136C480,112,549,80,617,84C685.7,88,754,128,823,144C891.4,160,960,152,1029,156C1097.1,160,1166,176,1234,184C1302.9,192,1371,192,1440,160C1508.6,128,1577,64,1646,48C1714.3,32,1783,64,1851,72C1920,80,1989,64,2057,52C2125.7,40,2194,32,2263,60C2331.4,88,2400,152,2469,156C2537.1,160,2606,104,2674,100C2742.9,96,2811,144,2880,156C2948.6,168,3017,144,3086,116C3154.3,88,3223,56,3291,36C3360,16,3429,8,3497,8C3565.7,8,3634,16,3703,36C3771.4,56,3840,88,3909,96C3977.1,104,4046,88,4114,96C4182.9,104,4251,136,4320,128C4388.6,120,4457,72,4526,44C4594.3,16,4663,8,4731,32C4800,56,4869,112,4903,140L4937.1,168L4937.1,240L4902.9,240C4868.6,240,4800,240,4731,240C4662.9,240,4594,240,4526,240C4457.1,240,4389,240,4320,240C4251.4,240,4183,240,4114,240C4045.7,240,3977,240,3909,240C3840,240,3771,240,3703,240C3634.3,240,3566,240,3497,240C3428.6,240,3360,240,3291,240C3222.9,240,3154,240,3086,240C3017.1,240,2949,240,2880,240C2811.4,240,2743,240,2674,240C2605.7,240,2537,240,2469,240C2400,240,2331,240,2263,240C2194.3,240,2126,240,2057,240C1988.6,240,1920,240,1851,240C1782.9,240,1714,240,1646,240C1577.1,240,1509,240,1440,240C1371.4,240,1303,240,1234,240C1165.7,240,1097,240,1029,240C960,240,891,240,823,240C754.3,240,686,240,617,240C548.6,240,480,240,411,240C342.9,240,274,240,206,240C137.1,240,69,240,34,240L0,240Z"/><defs><linearGradient id="sw-gradient-2" x1="0" x2="0" y1="1" y2="0"><stop stop-color="rgba(243, 106, 62, 1)" offset="0%"/><stop stop-color="rgba(255, 179, 11, 1)" offset="100%"/></linearGradient></defs><path style="transform:translate(0, 100px); opacity:0.8" fill="url(#sw-gradient-2)" d="M0,72L34.3,60C68.6,48,137,24,206,40C274.3,56,343,112,411,144C480,176,549,184,617,184C685.7,184,754,176,823,156C891.4,136,960,104,1029,80C1097.1,56,1166,40,1234,56C1302.9,72,1371,120,1440,128C1508.6,136,1577,104,1646,96C1714.3,88,1783,104,1851,96C1920,88,1989,56,2057,52C2125.7,48,2194,72,2263,88C2331.4,104,2400,112,2469,128C2537.1,144,2606,168,2674,168C2742.9,168,2811,144,2880,120C2948.6,96,3017,72,3086,72C3154.3,72,3223,96,3291,112C3360,128,3429,136,3497,128C3565.7,120,3634,96,3703,96C3771.4,96,3840,120,3909,140C3977.1,160,4046,176,4114,168C4182.9,160,4251,128,4320,108C4388.6,88,4457,80,4526,72C4594.3,64,4663,56,4731,56C4800,56,4869,64,4903,68L4937.1,72L4937.1,240L4902.9,240C4868.6,240,4800,240,4731,240C4662.9,240,4594,240,4526,240C4457.1,240,4389,240,4320,240C4251.4,240,4183,240,4114,240C4045.7,240,3977,240,3909,240C3840,240,3771,240,3703,240C3634.3,240,3566,240,3497,240C3428.6,240,3360,240,3291,240C3222.9,240,3154,240,3086,240C3017.1,240,2949,240,2880,240C2811.4,240,2743,240,2674,240C2605.7,240,2537,240,2469,240C2400,240,2331,240,2263,240C2194.3,240,2126,240,2057,240C1988.6,240,1920,240,1851,240C1782.9,240,1714,240,1646,240C1577.1,240,1509,240,1440,240C1371.4,240,1303,240,1234,240C1165.7,240,1097,240,1029,240C960,240,891,240,823,240C754.3,240,686,240,617,240C548.6,240,480,240,411,240C342.9,240,274,240,206,240C137.1,240,69,240,34,240L0,240Z"/><defs><linearGradient id="sw-gradient-3" x1="0" x2="0" y1="1" y2="0"><stop stop-color="rgba(243, 106, 62, 1)" offset="0%"/><stop stop-color="rgba(235.334, 182.997, 67.305, 1)" offset="100%"/></linearGradient></defs><path style="transform:translate(0, 150px); opacity:0.7" fill="url(#sw-gradient-3)" d="M0,168L34.3,156C68.6,144,137,120,206,92C274.3,64,343,32,411,36C480,40,549,80,617,96C685.7,112,754,104,823,120C891.4,136,960,176,1029,164C1097.1,152,1166,88,1234,72C1302.9,56,1371,88,1440,92C1508.6,96,1577,72,1646,72C1714.3,72,1783,96,1851,104C1920,112,1989,104,2057,108C2125.7,112,2194,128,2263,128C2331.4,128,2400,112,2469,108C2537.1,104,2606,112,2674,128C2742.9,144,2811,168,2880,156C2948.6,144,3017,96,3086,100C3154.3,104,3223,160,3291,176C3360,192,3429,168,3497,164C3565.7,160,3634,176,3703,172C3771.4,168,3840,144,3909,128C3977.1,112,4046,104,4114,100C4182.9,96,4251,96,4320,108C4388.6,120,4457,144,4526,160C4594.3,176,4663,184,4731,172C4800,160,4869,128,4903,112L4937.1,96L4937.1,240L4902.9,240C4868.6,240,4800,240,4731,240C4662.9,240,4594,240,4526,240C4457.1,240,4389,240,4320,240C4251.4,240,4183,240,4114,240C4045.7,240,3977,240,3909,240C3840,240,3771,240,3703,240C3634.3,240,3566,240,3497,240C3428.6,240,3360,240,3291,240C3222.9,240,3154,240,3086,240C3017.1,240,2949,240,2880,240C2811.4,240,2743,240,2674,240C2605.7,240,2537,240,2469,240C2400,240,2331,240,2263,240C2194.3,240,2126,240,2057,240C1988.6,240,1920,240,1851,240C1782.9,240,1714,240,1646,240C1577.1,240,1509,240,1440,240C1371.4,240,1303,240,1234,240C1165.7,240,1097,240,1029,240C960,240,891,240,823,240C754.3,240,686,240,617,240C548.6,240,480,240,411,240C342.9,240,274,240,206,240C137.1,240,69,240,34,240L0,240Z"/></svg>